<svg width="45" height="28" viewBox="0 0 45 28" xmlns="http://www.w3.org/2000/svg"><title>noun_321399_cc</title><g fill="#4C71FE" fill-rule="evenodd"><path d="M44.228 23.25h-.585l.345-1.733c.667-3.345.277-6.75-1.125-9.854a.745.745 0 0 0-.764-.436c-.757.083-1.492-.112-2.25-.69-.996-.757-1.55-1.837-1.483-2.88a3.366 3.366 0 0 1 2.728-3.097.747.747 0 0 0 .6-.847l-.345-2.326a.753.753 0 0 0-.3-.495.712.712 0 0 0-.562-.135L29.985 2.4v-.9a.752.752 0 0 0-.75-.75h-3.748a.752.752 0 0 0-.75.75v2.123a24.707 24.707 0 0 0-4.497 2.054v-.322c0-.885-.72-1.605-1.604-1.605h-2.04c-.884 0-1.604.72-1.604 1.605V9.75c0 .037.015.075.023.113-2.107 2.31-3.718 5.13-4.445 8.467-2.662.84-4.798 1.59-6.86 4.343l-.404.63c-1.162.3-2.084 1.634-2.594 2.4l-.585.877a.77.77 0 0 0-.037.773.738.738 0 0 0 .66.397h43.478c.412 0 .75-.337.75-.75v-3a.752.752 0 0 0-.75-.75zm-17.991-21h2.249v.39c-.21.038-.42.083-.63.127-.158.03-.307.06-.465.098-.225.052-.457.112-.69.172-.15.038-.307.075-.464.12V2.25zm-9.745 3.105c0-.06.045-.105.105-.105h2.039c.06 0 .105.045.105.105v1.252a21.417 21.417 0 0 0-2.25 1.77V5.355zm-5.165 14.31l.142-.045a.732.732 0 0 0 .517-.623c.008-.06.008-.12.008-.172 1.507-7.275 7.526-11.97 13.74-13.95a26.72 26.72 0 0 1 1.59-.45c.075-.015.15-.037.232-.06.555-.128 1.102-.24 1.642-.33l.15-.022 10.63-1.665.134.922a4.858 4.858 0 0 0-3.246 4.29c-.097 1.553.675 3.112 2.07 4.17.884.675 1.783 1.005 2.758 1.012a14.635 14.635 0 0 1 .824 8.476l-.404 2.032H5.157c1.747-2.198 3.531-2.753 6.17-3.585zm32.151 6.585H2.151c.39-.563 1.08-1.47 1.62-1.5h39.707v1.5z"/><path d="M36.844 11.797c-1.042-1.26-1.567-2.797-1.47-4.32.016-.292.053-.577.113-.855l.21-1.057a.757.757 0 0 0-.855-.893l-5.412.848c-4.835.758-10.127 4.485-12.106 8.513l-1.17 1.184a.755.755 0 0 0-.142.856c.127.262.39.42.675.42.03 0 .052 0 .082-.008l20.592-2.25c.277-.03.51-.21.615-.465a.734.734 0 0 0-.12-.758l-1.012-1.215zM24.864 14.1V12h6.748v1.365l-5.188.57-1.56.165zm8.247-.9v-1.95a.752.752 0 0 0-.75-.75h-8.246a.752.752 0 0 0-.75.75v3.015l-4.737.518c1.724-3.608 6.672-7.095 11.034-7.778l4.348-.683a8.153 8.153 0 0 0-.135 1.058c-.12 1.905.525 3.81 1.814 5.37l.128.158-2.706.292z"/></g></svg>