<svg width="32" height="46" viewBox="0 0 32 46" xmlns="http://www.w3.org/2000/svg"><title>noun_321339_cc</title><g fill="#4C71FE" fill-rule="evenodd"><path d="M16.103.75c-.577 0-1.17.03-1.754.098C7.287 1.627 1.598 7.335.833 14.4c-.525 4.807 1.162 9.472 4.633 12.795 2.234 2.145 3.523 5.1 3.523 8.1v7.455h1.874l2.249 3h5.247l2.25-3h1.866V36c0-3.165 1.394-6.218 3.83-8.378a15.395 15.395 0 0 0 5.165-11.497C31.47 7.65 24.574.75 16.103.75zm1.5 43.5h-3.749l-1.124-1.5h5.997l-1.125 1.5zm3.372-3H10.481v-1.5h10.494v1.5zm0-3H10.481v-1.5h10.494v1.5zm.023-3h-10.51c-.015-3.39-1.462-6.72-3.98-9.135-3.126-3-4.655-7.215-4.176-11.55C3.03 8.19 8.157 3.045 14.53 2.34c.517-.06 1.05-.09 1.574-.09 7.646 0 13.868 6.225 13.868 13.875 0 3.96-1.702 7.74-4.663 10.372-2.563 2.273-4.108 5.43-4.31 8.753z"/><path d="M25.124 16.613a.752.752 0 0 0-1.034.24c-.458.742-1.035 1.147-1.612 1.147-.577 0-1.154-.405-1.612-1.148l-.015-.015c-.03-.044-.067-.075-.105-.112-.037-.037-.067-.075-.105-.098l-.015-.014c-.03-.023-.067-.023-.105-.038-.052-.022-.097-.045-.15-.052-.044-.008-.09-.008-.142-.008-.052 0-.097-.007-.142.008-.053.007-.098.037-.15.052-.038.015-.068.015-.105.038l-.015.015c-.045.03-.075.067-.113.105-.037.037-.075.067-.097.105l-.015.015C19.135 17.595 18.557 18 17.98 18c-.577 0-1.154-.405-1.611-1.147l-.015-.015c-.03-.045-.068-.075-.105-.113-.038-.037-.068-.075-.105-.097l-.015-.015c-.03-.023-.068-.023-.105-.038-.053-.022-.098-.045-.15-.052-.045-.008-.09-.008-.143-.008-.052 0-.097-.007-.142.008-.052.007-.097.037-.15.052-.037.015-.067.015-.105.038l-.015.015c-.045.03-.075.067-.112.105-.038.037-.075.067-.098.105l-.015.015C14.637 17.595 14.06 18 13.483 18c-.578 0-1.155-.405-1.612-1.147l-.015-.015c-.03-.045-.068-.075-.105-.113-.038-.037-.068-.075-.105-.097l-.015-.015c-.03-.023-.067-.023-.105-.038-.052-.022-.097-.045-.15-.052-.045-.008-.09-.008-.142-.008-.053 0-.098-.007-.143.008-.052.007-.097.037-.15.052-.037.015-.067.015-.105.038l-.015.015c-.045.03-.075.067-.112.105-.038.037-.075.067-.097.105l-.015.015C10.139 17.595 9.562 18 8.985 18c-.577 0-1.155-.405-1.612-1.147a.752.752 0 0 0-1.274.795C6.84 18.84 7.868 19.5 8.985 19.5c.824 0 1.604-.36 2.249-1.035.644.668 1.424 1.035 2.249 1.035.824 0 1.604-.36 2.248-1.035.645.668 1.425 1.035 2.25 1.035.824 0 1.603-.36 2.248-1.035.645.668 1.424 1.035 2.249 1.035 1.117 0 2.144-.66 2.886-1.852a.752.752 0 0 0-.24-1.035z"/></g></svg>