<svg width="36" height="46" viewBox="0 0 36 46" xmlns="http://www.w3.org/2000/svg"><title>noun_321395_cc</title><g fill="#4C71FE" fill-rule="evenodd"><path d="M18.311 15.5a.752.752 0 0 0-.75.75v1.5c0 .413.338.75.75.75s.75-.337.75-.75v-1.5a.752.752 0 0 0-.75-.75zM21.31 15.5a.752.752 0 0 0-.75.75v1.5c0 .413.337.75.75.75.412 0 .75-.337.75-.75v-1.5a.752.752 0 0 0-.75-.75zM24.308 15.5a.752.752 0 0 0-.75.75v1.5c0 .413.338.75.75.75s.75-.337.75-.75v-1.5a.752.752 0 0 0-.75-.75zM27.307 15.5a.752.752 0 0 0-.75.75v1.5c0 .413.337.75.75.75.412 0 .75-.337.75-.75v-1.5a.752.752 0 0 0-.75-.75z"/><path d="M31.554 8.75V8a3.75 3.75 0 0 0 0-7.5.752.752 0 0 0-.75.75c0 .413.338.75.75.75a2.256 2.256 0 0 1 2.249 2.25 2.256 2.256 0 0 1-2.25 2.25.752.752 0 0 0-.749-.75h-1.087c-2.391 0-4.865-.338-7.353-1.013a14.4 14.4 0 0 0-3.711-.487h-3.59v-1.5a.752.752 0 0 0-.75-.75h-2.25a.752.752 0 0 0-.749.75v1.5h-.75v-1.5a.752.752 0 0 0-.75-.75H7.567a.752.752 0 0 0-.75.75v1.538C3.038 4.647.07 7.841.07 11.712v6.944A2.845 2.845 0 0 0 2.91 21.5h1.658v2.25c0 .413.337.75.75.75h2.248v6.398c-1.117.93-4.962 4.402-5.232 8.272-.12 1.755.494 3.337 1.859 4.733 1.102 1.027 2.57 1.597 4.13 1.597s3.029-.57 4.16-1.627c1.327-1.358 1.935-2.933 1.815-4.673-.263-3.885-4.138-7.395-5.233-8.318V24.5h2.25c.411 0 .749-.337.749-.75V21.5h18.148c1.567 0 2.841-1.26 2.841-2.82A14.43 14.43 0 0 0 29.77 9.5h1.034c.413 0 .75-.338.75-.75zM9.2 43.25c-.262.472-.585.75-.877.75-.292 0-.615-.27-.847-.697a6.981 6.981 0 0 1-.652-3.308c.075-2.122.75-4.665 1.484-6.712.75 2.077 1.432 4.657 1.5 6.78.03.862-.023 1.904-.608 3.187zm-5.367-3.975c.135-1.92 1.41-3.81 2.639-5.205-.593 1.898-1.08 4.027-1.14 5.88-.03.847.015 1.957.532 3.345a4.183 4.183 0 0 1-.614-.473c-1.05-1.057-1.515-2.22-1.417-3.547zm8.973.03c.09 1.313-.367 2.468-1.372 3.495-.195.18-.412.345-.637.488.487-1.313.54-2.378.51-3.27-.06-1.868-.555-4.035-1.162-5.97 1.23 1.41 2.526 3.322 2.66 5.257zM12.813 3.5h.75v.75h-.75V3.5zm-4.497 0h.75v.75h-.75V3.5zM10.564 23H6.067v-1.5h4.497V23zm19.49-15h-.284a1.5 1.5 0 0 0-1.372.87 1.496 1.496 0 0 0 .195 1.59 12.868 12.868 0 0 1 2.953 8.22c0 .727-.607 1.32-1.341 1.32H2.91a1.34 1.34 0 0 1-1.342-1.343v-6.944c0-3.285 2.676-5.963 5.96-5.963h11.124c1.124 0 2.241.15 3.32.435C24.59 6.89 27.2 7.25 29.718 7.25h.338V8z"/><path d="M27.869 10.475l-1.252-.832A14.117 14.117 0 0 0 18.73 7.25H7.816a2.998 2.998 0 0 0-2.998 3c0 1.658 1.342 3 2.998 3h19.22c.675 0 1.253-.435 1.447-1.072a1.51 1.51 0 0 0-.614-1.703zM7.816 11.75c-.824 0-1.499-.675-1.499-1.5s.675-1.5 1.5-1.5H18.73c2.519 0 4.962.742 7.061 2.137l1.245.863H7.817z"/></g></svg>