<svg width="45" height="45" viewBox="0 0 45 45" xmlns="http://www.w3.org/2000/svg"><title>noun_321315_cc</title><g fill="#4C71FE" fill-rule="evenodd"><path d="M4.475 34.995c-.285-.398-.944-.398-1.222 0L1.05 38.1c-1.424 1.972-1.394 4.29.075 5.767A3.862 3.862 0 0 0 3.861 45a3.832 3.832 0 0 0 2.728-1.133c1.035-1.034 1.89-2.864.083-5.76l-2.197-3.112zm1.057 7.815c-.892.892-2.451.892-3.343 0-.945-.945-.915-2.453.082-3.833l1.59-2.25 1.566 2.213c1.522 2.445.458 3.518.105 3.87zM1.717 31.718a.747.747 0 0 0 0 1.057c.15.15.337.225.532.225a.768.768 0 0 0 .532-.218l1.5-1.5a.747.747 0 1 0-1.058-1.057l-1.506 1.492zM.75 29.25h2.248c.413 0 .75-.337.75-.75a.752.752 0 0 0-.75-.75H.75a.752.752 0 0 0-.75.75c0 .413.337.75.75.75zM44.228 21.75H32.234V18h-4.498v2.25h-3.358a.387.387 0 0 1-.39-.39V16.5h2.249V12h-3.748V0H5.997v12H2.249v4.5h2.249v9.323c0 7.68 6.244 13.927 13.92 13.927h9.318V42h4.498v-3.75h11.994v-16.5zM7.496 1.5H20.99V12H7.496V1.5zM3.748 15v-1.5h20.989V15H3.748zm14.67 23.25c-5.93 0-10.892-4.185-12.121-9.75h2.698c.413 0 .75-.337.75-.75V25.5h2.249c.412 0 .75-.337.75-.75v-3a.752.752 0 0 0-.75-.75.752.752 0 0 0-.75.75V24H8.995a.752.752 0 0 0-.75.75V27H6.058c-.038-.39-.06-.78-.06-1.177V16.5h16.492v3.36c0 1.043.847 1.89 1.889 1.89h3.358v16.5h-9.318zm12.316 2.25h-1.499v-21h1.5v21zm11.994-3.75H32.234v-13.5h10.494v13.5z"/></g></svg>