<svg width="34" height="43" viewBox="0 0 34 43" xmlns="http://www.w3.org/2000/svg"><title>noun_321363_cc</title><g fill="#4C71FE" fill-rule="evenodd"><path d="M14.398 34.5h4.497c.413 0 .75-.337.75-.75a.752.752 0 0 0-.75-.75h-4.497a.752.752 0 0 0-.75.75c0 .413.337.75.75.75z"/><path d="M17.404 34.488c.195 0 .39-.083.532-.218a.761.761 0 0 0 0-1.065c-.277-.277-.787-.27-1.057 0a.737.737 0 0 0-.225.533c0 .195.082.39.217.532a.788.788 0 0 0 .533.218zM18.146 35.25h-1.5a.752.752 0 0 0-.75.75c0 .413.338.75.75.75h1.5c.412 0 .75-.337.75-.75a.752.752 0 0 0-.75-.75zM14.398 36.75c.194 0 .39-.083.532-.218a.789.789 0 0 0 .217-.532.789.789 0 0 0-.217-.532c-.285-.278-.787-.278-1.065 0a.789.789 0 0 0-.217.532c0 .203.082.39.217.532a.788.788 0 0 0 .533.218z"/><path d="M33.557 13.92a.75.75 0 0 0-1.005-.345l-2.271 1.11a2.405 2.405 0 0 0-1.147-.998V11.25a.752.752 0 0 0-.75-.75.752.752 0 0 0-.75.75v2.318c-.524.142-.974.48-1.289.975-.802 1.275-2.338 1.732-3.958 2.047v-2.34a.752.752 0 0 0-.75-.75.752.752 0 0 0-.749.75v2.61c-.42.075-.84.15-1.237.248a8.836 8.836 0 0 0-2.548 1.05 10.98 10.98 0 0 0-.353-.585c-.24-.368-.682-1.38-.72-1.56-.007-1.636 1.695-2.753 3.351-3.833.75-.495 1.462-.96 2.04-1.477A6.39 6.39 0 0 0 22.731 9h3.404c.412 0 .75-.338.75-.75a.752.752 0 0 0-.75-.75h-2.804c.082-.322.135-.66.157-.99l2.954-1.327a.75.75 0 0 0-.615-1.365l-2.414 1.08a5.562 5.562 0 0 0-.225-.84 2.355 2.355 0 0 0-.562-.885l1.162-2.055a.75.75 0 0 0-1.304-.736l-1.23 2.176c-.082-.008-.157-.015-.24-.015-.719 0-1.386.314-1.806.825L16.833 1.65a.76.76 0 0 0-1.05.165.761.761 0 0 0 .165 1.05l2.826 2.04c.023.15.06.308.113.465.344.975-.12 1.755-1.042 2.535l-1.68-1.68a.747.747 0 1 0-1.057 1.058l1.515 1.514c-.21.143-.435.285-.66.428-.442.277-.854.548-1.214.81-1.14.855-2.01 1.883-2.549 3.022-1.372-1.162-2.639-2.31-3.403-3.652l3.62-3.622a.747.747 0 1 0-1.057-1.058L8.205 7.883a5.16 5.16 0 0 1-.038-2.07C8.482 3.99 6.787.638 6.495.285L6.248 0h-.66l-.224.217c-.435.435-.893 1.838-1.2 2.986L1.93.966A.747.747 0 1 0 .873 2.026l2.909 2.91c-.517 3.27.577 5.708 2.241 7.815H2.897a.752.752 0 0 0-.75.75c0 .412.338.75.75.75h4.43c.63.66 1.29 1.305 1.942 1.935.885.855 1.747 1.688 2.504 2.565H8.894a.752.752 0 0 0-.75.75c0 .413.338.75.75.75h4.033c.675 1.027 1.155 2.137 1.297 3.39l-2.819-1.088a.748.748 0 1 0-.54 1.396l3.367 1.297c-.03.27-.068.547-.135.84-.015.052-.008.113-.015.165H5.896v6h1.956l2.714 10.5h13.156l2.713-10.5h1.95v-6h-9.76c.014-.098.037-.203.052-.3l3.358-2.055a.753.753 0 0 0-.787-1.282l-2.474 1.515c-.007-.54-.03-1.066-.112-1.59 1.072-1.035 2.833-1.343 4.542-1.636.3-.052.585-.105.87-.157l2.279 2.28c.15.15.337.225.532.225a.747.747 0 0 0 .532-1.275l-1.641-1.643c.944-.315 1.799-.78 2.548-1.372l2.624 1.905c.128.09.277.135.435.135a.75.75 0 0 0 .442-1.358l-2.399-1.747c.285-.322.548-.668.78-1.035.12-.195.202-.39.262-.6l2.744-1.343a.746.746 0 0 0 .345-.997zM22.56 41.25H11.72l-2.324-9h15.48l-2.316 9zm4.325-10.5H7.395v-3h19.491v3zM22.95 19.425c-2.002.345-4.266.735-5.66 2.385l-.225.27.06.345c.217 1.207.21 2.467-.015 3.817h-1.514c.097-.51.15-.997.165-1.477 0-.023.007-.045 0-.067.142-4.178-2.699-6.93-5.457-9.6-.735-.713-1.47-1.418-2.13-2.138-2.03-2.205-3.493-4.583-2.9-7.958.12-.69.397-1.717.66-2.527.427 1.012.869 2.363.749 3.068-.255 1.477-.038 2.752.465 3.885a.9.9 0 0 0 .097.232c.975 2.01 2.834 3.578 4.558 5.018l1.11.937.322-1.11c.352-1.238 1.184-2.37 2.406-3.278.315-.232.704-.48 1.124-.75 1.8-1.147 4.513-2.872 3.531-5.632-.112-.315-.008-.465.03-.518.127-.18.405-.307.69-.307.217 0 .592.068.757.533.6 1.68.037 3.75-1.365 5.025-.487.442-1.147.877-1.851 1.335-1.897 1.245-4.04 2.647-4.026 5.1 0 .562.75 2.047.96 2.362.232.36.45.75.675 1.2l.404.81.72-.54a7.514 7.514 0 0 1 2.721-1.282c.51-.12 1.057-.218 1.642-.323 2.174-.375 4.64-.802 5.967-2.902.15-.24.345-.353.592-.353a.93.93 0 0 1 .78.443c.105.194.09.397-.053.622-.937 1.485-2.339 2.512-4.055 2.977-.585.165-1.237.278-1.934.398z"/></g></svg>