<?xml version="1.0" encoding="UTF-8" standalone="no"?>
<svg width="53px" height="67px" viewBox="0 0 53 67" version="1.1" xmlns="http://www.w3.org/2000/svg" xmlns:xlink="http://www.w3.org/1999/xlink">
    <!-- Generator: Sketch 41.1 (35376) - http://www.bohemiancoding.com/sketch -->
    <title>Combined Shape Copy</title>
    <desc>Created with Sketch.</desc>
    <defs></defs>
    <g id="Page-1" stroke="none" stroke-width="1" fill="none" fill-rule="evenodd">
        <g id="Client-dashboard-New-Task-creation-Copy" transform="translate(-520.000000, -527.000000)" fill="#4C71FE">
            <g id="Map" transform="translate(-165.000000, 75.000000)">
                <path d="M711.5,519 C715.391864,519 738,493.601231 738,478.8 C738,463.998769 726.135546,452 711.5,452 C696.864454,452 685,463.998769 685,478.8 C685,493.601231 707.608136,519 711.5,519 Z M711.5,492.2 C718.817773,492.2 724.75,486.200616 724.75,478.8 C724.75,471.399384 718.817773,465.4 711.5,465.4 C704.182227,465.4 698.25,471.399384 698.25,478.8 C698.25,486.200616 704.182227,492.2 711.5,492.2 Z M711.5,487.733333 C716.378515,487.733333 720.333333,483.733744 720.333333,478.8 C720.333333,473.866256 716.378515,469.866667 711.5,469.866667 C706.621485,469.866667 702.666667,473.866256 702.666667,478.8 C702.666667,483.733744 706.621485,487.733333 711.5,487.733333 Z" id="Combined-Shape-Copy"></path>
            </g>
        </g>
    </g>
</svg>