<?xml version="1.0" encoding="UTF-8" standalone="no"?>
<svg width="36px" height="46px" viewBox="0 0 36 46" version="1.1" xmlns="http://www.w3.org/2000/svg" xmlns:xlink="http://www.w3.org/1999/xlink">
    <!-- Generator: Sketch 41.1 (35376) - http://www.bohemiancoding.com/sketch -->
    <title>noun_321395_cc</title>
    <desc>Created with Sketch.</desc>
    <defs></defs>
    <g id="Pages" stroke="none" stroke-width="1" fill="none" fill-rule="evenodd">
        <g id="Client-dashboard-New-Task-creation-Copy" transform="translate(-1323.000000, -489.000000)" fill="#4C71FE">
            <g id="Group-3" transform="translate(900.000000, 80.000000)">
                <g id="Group-2" transform="translate(40.000000, 393.000000)">
                    <g id="noun_321395_cc" transform="translate(383.069803, 16.500000)">
                        <g id="Group">
                            <path d="M18.2412747,15 C17.8289833,15 17.491654,15.3375 17.491654,15.75 L17.491654,17.25 C17.491654,17.6625 17.8289833,18 18.2412747,18 C18.653566,18 18.9908953,17.6625 18.9908953,17.25 L18.9908953,15.75 C18.9908953,15.3375 18.653566,15 18.2412747,15 L18.2412747,15 Z" id="Shape"></path>
                            <path d="M21.2397572,15 C20.8274659,15 20.4901366,15.3375 20.4901366,15.75 L20.4901366,17.25 C20.4901366,17.6625 20.8274659,18 21.2397572,18 C21.6520486,18 21.9893778,17.6625 21.9893778,17.25 L21.9893778,15.75 C21.9893778,15.3375 21.6520486,15 21.2397572,15 L21.2397572,15 Z" id="Shape"></path>
                            <path d="M24.2382398,15 C23.8259484,15 23.4886191,15.3375 23.4886191,15.75 L23.4886191,17.25 C23.4886191,17.6625 23.8259484,18 24.2382398,18 C24.6505311,18 24.9878604,17.6625 24.9878604,17.25 L24.9878604,15.75 C24.9878604,15.3375 24.6505311,15 24.2382398,15 L24.2382398,15 Z" id="Shape"></path>
                            <path d="M27.2367223,15 C26.824431,15 26.4871017,15.3375 26.4871017,15.75 L26.4871017,17.25 C26.4871017,17.6625 26.824431,18 27.2367223,18 C27.6490137,18 27.9863429,17.6625 27.9863429,17.25 L27.9863429,15.75 C27.9863429,15.3375 27.6490137,15 27.2367223,15 L27.2367223,15 Z" id="Shape"></path>
                            <path d="M31.4840668,8.25 L31.4840668,7.5 C33.5530197,7.5 35.23217,5.82 35.23217,3.75 C35.23217,1.68 33.5530197,0 31.4840668,0 C31.0717754,0 30.7344461,0.3375 30.7344461,0.75 C30.7344461,1.1625 31.0717754,1.5 31.4840668,1.5 C32.7209408,1.5 33.7329287,2.5125 33.7329287,3.75 C33.7329287,4.9875 32.7209408,6 31.4840668,6 C31.4840668,5.5875 31.1467375,5.25 30.7344461,5.25 L29.6474962,5.25 C27.2562064,5.25 24.7824583,4.9125 22.2937178,4.2375 C21.0868285,3.915 19.8349621,3.75 18.5830956,3.75 L14.9924127,3.75 L14.9924127,2.25 C14.9924127,1.8375 14.6550835,1.5 14.2427921,1.5 L11.9939302,1.5 C11.5816388,1.5 11.2443096,1.8375 11.2443096,2.25 L11.2443096,3.75 L10.4946889,3.75 L10.4946889,2.25 C10.4946889,1.8375 10.1573596,1.5 9.74506829,1.5 L7.49620637,1.5 C7.08391502,1.5 6.74658574,1.8375 6.74658574,2.25 L6.74658574,3.7875 C2.96849772,4.1475 0,7.3425 0,11.2125 L0,18.1575 C0,19.725 1.27435508,21 2.84106222,21 L4.49772382,21 L4.49772382,23.25 C4.49772382,23.6625 4.83505311,24 5.24734446,24 L7.49620637,24 L7.49620637,30.3975 C6.37927162,31.3275 2.53371775,34.8 2.26385432,38.67 C2.14391502,40.425 2.75860395,42.0075 4.12291351,43.4025 C5.22485584,44.43 6.69411229,45 8.25332322,45 C9.81253414,45 11.2817906,44.43 12.4137178,43.3725 C13.7405463,42.015 14.347739,40.44 14.2277997,38.7 C13.9654325,34.815 10.0898938,31.305 8.99544765,30.3825 L8.99544765,24 L11.2443096,24 C11.6566009,24 11.9939302,23.6625 11.9939302,23.25 L11.9939302,21 L30.1422458,21 C31.708953,21 32.983308,19.74 32.983308,18.18 C32.9908042,14.835 31.8213961,11.58 29.6999697,9 L30.7344461,9 C31.1467375,9 31.4840668,8.6625 31.4840668,8.25 L31.4840668,8.25 Z M9.13037936,42.75 C8.86801214,43.2225 8.54567527,43.5 8.25332322,43.5 C7.96097117,43.5 7.63863429,43.23 7.4062519,42.8025 C6.77657056,41.4225 6.72409712,40.3125 6.75408194,39.495 C6.82904401,37.3725 7.50370258,34.83 8.2383308,32.7825 C8.98795144,34.86 9.67010622,37.44 9.73757208,39.5625 C9.7675569,40.425 9.71508346,41.4675 9.13037936,42.75 L9.13037936,42.75 Z M3.7630956,38.775 C3.89802731,36.855 5.1723824,34.965 6.40176024,33.57 C5.80955994,35.4675 5.32230653,37.5975 5.26233687,39.45 C5.23235205,40.2975 5.27732929,41.4075 5.79456753,42.795 C5.57717754,42.6525 5.36728376,42.5025 5.1798786,42.3225 C4.13040971,41.265 3.66564492,40.1025 3.7630956,38.775 L3.7630956,38.775 Z M12.7360546,38.805 C12.8260091,40.1175 12.3687405,41.2725 11.3642489,42.3 C11.1693475,42.48 10.9519575,42.645 10.7270713,42.7875 C11.2143247,41.475 11.2667982,40.41 11.2368134,39.5175 C11.1768437,37.65 10.6820941,35.4825 10.0749014,33.5475 C11.3042792,34.9575 12.6011229,36.87 12.7360546,38.805 L12.7360546,38.805 Z M12.7435508,3 L13.4931715,3 L13.4931715,3.75 L12.7435508,3.75 L12.7435508,3 L12.7435508,3 Z M8.24582701,3 L8.99544765,3 L8.99544765,3.75 L8.24582701,3.75 L8.24582701,3 L8.24582701,3 Z M10.4946889,22.5 L5.9969651,22.5 L5.9969651,21 L10.4946889,21 L10.4946889,22.5 L10.4946889,22.5 Z M29.9848255,7.5 L29.6999697,7.5 C29.1077693,7.5 28.5830349,7.83 28.3281639,8.37 C28.0807891,8.9025 28.1557511,9.51 28.5230653,9.96 C30.4345979,12.27 31.4840668,15.1875 31.4765706,18.18 C31.4765706,18.9075 30.8693778,19.5 30.1347496,19.5 L11.2443096,19.5 L5.24734446,19.5 L2.84106222,19.5 C2.09893778,19.5 1.49924127,18.9 1.49924127,18.1575 L1.49924127,11.2125 C1.49924127,7.9275 4.17538695,5.25 7.45872534,5.25 L7.49620637,5.25 L9.74506829,5.25 L11.9939302,5.25 L14.2427921,5.25 L18.5830956,5.25 C19.7075266,5.25 20.8244613,5.4 21.903915,5.685 C24.520091,6.39 27.1287709,6.75 29.6474962,6.75 L29.9848255,6.75 L29.9848255,7.5 L29.9848255,7.5 Z" id="Shape"></path>
                            <path d="M27.7989378,9.975 L26.5470713,9.1425 C24.2082549,7.575 21.4796358,6.75 18.6610622,6.75 L7.74658574,6.75 C6.08992413,6.75 4.74810319,8.0925 4.74810319,9.75 C4.74810319,11.4075 6.08992413,12.75 7.74658574,12.75 L26.9668589,12.75 C27.6415175,12.75 28.2187253,12.315 28.4136267,11.6775 C28.6085281,11.0325 28.3611533,10.35 27.7989378,9.975 L27.7989378,9.975 Z M7.74658574,11.25 C6.92200303,11.25 6.24734446,10.575 6.24734446,9.75 C6.24734446,8.925 6.92200303,8.25 7.74658574,8.25 L18.6610622,8.25 C21.1797876,8.25 23.6235508,8.9925 25.7224886,10.3875 L26.9668589,11.25 L7.74658574,11.25 L7.74658574,11.25 Z" id="Shape"></path>
                        </g>
                    </g>
                </g>
            </g>
        </g>
    </g>
</svg>