<?xml version="1.0" encoding="UTF-8" standalone="no"?>
<svg width="34px" height="43px" viewBox="0 0 34 43" version="1.1" xmlns="http://www.w3.org/2000/svg" xmlns:xlink="http://www.w3.org/1999/xlink">
    <!-- Generator: Sketch 41.1 (35376) - http://www.bohemiancoding.com/sketch -->
    <title>noun_321363_cc</title>
    <desc>Created with Sketch.</desc>
    <defs></defs>
    <g id="Pages" stroke="none" stroke-width="1" fill="none" fill-rule="evenodd">
        <g id="Client-dashboard-New-Task-creation-Copy" transform="translate(-1142.000000, -491.000000)" fill="#4C71FE">
            <g id="Group-3" transform="translate(900.000000, 80.000000)">
                <g id="Group-2" transform="translate(40.000000, 393.000000)">
                    <g id="noun_321363_cc" transform="translate(202.654021, 18.000000)">
                        <g id="Group">
                            <path d="M13.7435508,34.5 L18.2412747,34.5 C18.653566,34.5 18.9908953,34.1625 18.9908953,33.75 C18.9908953,33.3375 18.653566,33 18.2412747,33 L13.7435508,33 C13.3312595,33 12.9939302,33.3375 12.9939302,33.75 C12.9939302,34.1625 13.3312595,34.5 13.7435508,34.5 L13.7435508,34.5 Z" id="Shape"></path>
                            <path d="M16.7496206,34.4878221 C16.944522,34.4878221 17.1394234,34.4053221 17.2818513,34.2703221 C17.416783,34.1278221 17.4992413,33.9328221 17.4992413,33.7378221 C17.4992413,33.5353221 17.416783,33.3403221 17.2818513,33.2053221 C17.0044917,32.9278221 16.4947496,32.9353221 16.2248862,33.2053221 C16.0824583,33.3403221 16,33.5353221 16,33.7378221 C16,33.9328221 16.0824583,34.1278221 16.21739,34.2703221 C16.3598179,34.4053221 16.5547193,34.4878221 16.7496206,34.4878221 L16.7496206,34.4878221 Z" id="Shape"></path>
                            <path d="M17.491654,35.25 L15.9924127,35.25 C15.5801214,35.25 15.2427921,35.5875 15.2427921,36 C15.2427921,36.4125 15.5801214,36.75 15.9924127,36.75 L17.491654,36.75 C17.9039454,36.75 18.2412747,36.4125 18.2412747,36 C18.2412747,35.5875 17.9039454,35.25 17.491654,35.25 L17.491654,35.25 Z" id="Shape"></path>
                            <path d="M13.7435508,36.75 C13.9384522,36.75 14.1333536,36.6675 14.2757815,36.5325 C14.4107132,36.39 14.4931715,36.195 14.4931715,36 C14.4931715,35.805 14.4107132,35.61 14.2757815,35.4675 C13.9909256,35.19 13.4886798,35.19 13.2113202,35.4675 C13.0763885,35.61 12.9939302,35.805 12.9939302,36 C12.9939302,36.2025 13.0763885,36.39 13.2113202,36.5325 C13.3537481,36.6675 13.5486495,36.75 13.7435508,36.75 L13.7435508,36.75 Z" id="Shape"></path>
                            <path d="M32.9027238,13.92 C32.7228149,13.545 32.2730425,13.395 31.8982322,13.575 L29.6268816,14.685 C29.3720106,14.2425 28.9597193,13.89 28.4799621,13.6875 L28.4799621,11.25 C28.4799621,10.8375 28.1426328,10.5 27.7303414,10.5 C27.3180501,10.5 26.9807208,10.8375 26.9807208,11.25 L26.9807208,13.5675 C26.4559863,13.71 26.006214,14.0475 25.6913733,14.5425 C24.8892792,15.8175 23.3525569,16.275 21.7333763,16.59 L21.7333763,14.25 C21.7333763,13.8375 21.396047,13.5 20.9837557,13.5 C20.5714643,13.5 20.2341351,13.8375 20.2341351,14.25 L20.2341351,16.86 C19.8143475,16.935 19.3945599,17.01 18.997261,17.1075 C18.09022,17.325 17.2356525,17.6775 16.4485508,18.1575 C16.3361077,17.955 16.2161684,17.76 16.0962291,17.5725 C15.8563505,17.205 15.4140744,16.1925 15.3765933,16.0125 C15.3690971,14.3775 17.070736,13.26 18.7273976,12.18 C19.4770182,11.685 20.1891578,11.22 20.7663657,10.7025 C21.3060926,10.2075 21.7408725,9.63 22.0782018,9 L25.4814795,9 C25.8937709,9 26.2311002,8.6625 26.2311002,8.25 C26.2311002,7.8375 25.8937709,7.5 25.4814795,7.5 L22.6778983,7.5 C22.7603566,7.1775 22.81283,6.84 22.8353187,6.51 L25.788824,5.1825 C26.1636343,5.01 26.336047,4.5675 26.1636343,4.1925 C25.9912215,3.8175 25.5489454,3.645 25.1741351,3.8175 L22.7603566,4.8975 C22.7078832,4.6125 22.6329211,4.335 22.5354704,4.0575 C22.4080349,3.7125 22.2206297,3.4125 21.9732549,3.1725 L23.1351669,1.1175 C23.3375645,0.7575 23.210129,0.3 22.8503111,0.0975 C22.4904932,-0.105 22.0332246,0.0225 21.830827,0.3825 L20.6014492,2.5575 C20.5189909,2.55 20.4440288,2.5425 20.3615706,2.5425 C19.6419347,2.5425 18.9747724,2.8575 18.5549848,3.3675 L16.1786874,1.65 C15.8413581,1.41 15.3765933,1.485 15.1292185,1.815 C14.8893399,2.1525 14.964302,2.6175 15.2941351,2.865 L18.1202049,4.905 C18.1426935,5.055 18.1801745,5.2125 18.232648,5.37 C18.5774734,6.345 18.1127086,7.125 17.1906753,7.905 L15.511525,6.225 C15.219173,5.9325 14.746912,5.9325 14.4545599,6.225 C14.1622079,6.5175 14.1622079,6.99 14.4545599,7.2825 L15.9687936,8.7975 C15.7588998,8.94 15.5340137,9.0825 15.3091275,9.225 C14.8668513,9.5025 14.4545599,9.7725 14.094742,10.035 C12.9553187,10.89 12.0857587,11.9175 11.5460319,13.0575 C10.1742261,11.895 8.90736722,10.7475 8.14275417,9.405 L11.7634219,5.7825 C12.0557739,5.49 12.0557739,5.0175 11.7634219,4.725 C11.4710698,4.4325 10.9988088,4.4325 10.7064568,4.725 L7.55055387,7.8825 C7.40812595,7.245 7.37814112,6.5625 7.51307284,5.8125 C7.82791351,3.99 6.13377086,0.6375 5.84141882,0.285 L5.59404401,0 L4.93437785,0 L4.70949165,0.2175 C4.27471168,0.6525 3.8174431,2.055 3.51009863,3.2025 L1.27622914,0.9675 C0.983877086,0.675 0.511616085,0.675 0.219264036,0.9675 C-0.0730880121,1.26 -0.0730880121,1.7325 0.219264036,2.025 L3.12779211,4.935 C2.61055387,8.205 3.705,10.6425 5.36915781,12.75 L2.24323976,12.75 C1.83094841,12.75 1.49361912,13.0875 1.49361912,13.5 C1.49361912,13.9125 1.83094841,14.25 2.24323976,14.25 L6.67349772,14.25 C7.30317906,14.91 7.96284522,15.555 8.61501517,16.185 C9.49956753,17.04 10.3616313,17.8725 11.1187481,18.75 L8.24020486,18.75 C7.82791351,18.75 7.49058422,19.0875 7.49058422,19.5 C7.49058422,19.9125 7.82791351,20.25 8.24020486,20.25 L12.2731639,20.25 C12.9478225,21.2775 13.4275797,22.3875 13.5700076,23.64 L10.751434,22.5525 C10.3616313,22.4025 9.9343475,22.5975 9.78442337,22.98 C9.63449924,23.3625 9.82940061,23.7975 10.2117071,23.9475 L13.5775038,25.245 C13.547519,25.515 13.5100379,25.7925 13.4425721,26.085 C13.4275797,26.1375 13.4350759,26.1975 13.4275797,26.25 L5.24172231,26.25 L5.24172231,32.25 L7.19823217,32.25 L9.91185888,42.75 L23.0677011,42.75 L25.7813278,32.25 L27.7303414,32.25 L27.7303414,26.25 L17.9702807,26.25 C17.9852731,26.1525 18.0077618,26.0475 18.0227542,25.95 L21.3810546,23.895 C21.7333763,23.6775 21.8458194,23.22 21.6284294,22.86 C21.4110395,22.5075 20.9537709,22.395 20.593953,22.6125 L18.1202049,24.1275 C18.1127086,23.5875 18.09022,23.0625 18.0077618,22.5375 C19.0797193,21.5025 20.8413278,21.195 22.5504628,20.9025 C22.8503111,20.85 23.1351669,20.7975 23.4200228,20.745 L25.6988695,23.025 C25.8487936,23.175 26.0361988,23.25 26.2311002,23.25 C26.4260015,23.25 26.6134067,23.175 26.7633308,23.0325 C27.0556829,22.74 27.0556829,22.2675 26.7633308,21.975 L25.1216616,20.3325 C26.0661836,20.0175 26.9207511,19.5525 27.6703718,18.96 L30.294044,20.865 C30.4214795,20.955 30.5714036,21 30.728824,21 C30.9612064,21 31.1860926,20.895 31.3360167,20.6925 C31.5833915,20.355 31.5084294,19.89 31.1711002,19.6425 L28.7723141,17.895 C29.05717,17.5725 29.3195372,17.2275 29.5519196,16.86 C29.6718589,16.665 29.7543171,16.47 29.8142868,16.26 L32.5578983,14.9175 C32.9252124,14.745 33.0826328,14.295 32.9027238,13.92 L32.9027238,13.92 Z M21.9057891,41.25 L11.0662747,41.25 L8.74245068,32.25 L24.2221168,32.25 L21.9057891,41.25 L21.9057891,41.25 Z M26.2311002,30.75 L26.1636343,30.75 L6.80842944,30.75 L6.74096358,30.75 L6.74096358,27.75 L13.6524659,27.75 L17.6929211,27.75 L26.2311002,27.75 L26.2311002,30.75 L26.2311002,30.75 Z M22.2955918,19.425 C20.2941047,19.77 18.0302504,20.16 16.635956,21.81 L16.4110698,22.08 L16.4710395,22.425 C16.6884294,23.6325 16.6809332,24.8925 16.456047,26.2425 L14.9418134,26.2425 C15.039264,25.7325 15.0917375,25.245 15.1067299,24.765 C15.1067299,24.7425 15.1142261,24.72 15.1067299,24.6975 C15.2491578,20.52 12.4080956,17.7675 9.64949165,15.0975 C8.91486343,14.385 8.1802352,13.68 7.52056904,12.96 L7.52056904,12.96 C5.48909712,10.755 4.02733687,8.3775 4.61953718,5.0025 C4.73947648,4.3125 5.01683612,3.285 5.27920334,2.475 C5.7064871,3.4875 6.14876328,4.8375 6.02882398,5.5425 C5.77395296,7.02 5.99134294,8.295 6.49358877,9.4275 C6.51607739,9.51 6.54606222,9.585 6.59103945,9.66 C7.56554628,11.67 9.42460546,13.2375 11.1487329,14.6775 L12.2581715,15.615 L12.5805083,14.505 C12.93283,13.2675 13.764909,12.135 14.9867906,11.2275 C15.3016313,10.995 15.691434,10.7475 16.1112215,10.4775 C17.9103111,9.33 20.6239378,7.605 19.6419347,4.845 C19.5294917,4.53 19.6344385,4.38 19.6719196,4.3275 C19.7993551,4.1475 20.0767147,4.02 20.3615706,4.02 C20.5789605,4.02 20.9537709,4.0875 21.1186874,4.5525 C21.7183839,6.2325 21.1561684,8.3025 19.7543778,9.5775 C19.2671244,10.02 18.6074583,10.455 17.9028149,10.9125 C16.0062747,12.1575 13.8623596,13.56 13.877352,16.0125 C13.877352,16.575 14.6269727,18.06 14.8368665,18.375 C15.0692489,18.735 15.2866388,19.125 15.511525,19.575 L15.9163202,20.385 L16.635956,19.845 C17.4455463,19.2375 18.3600835,18.81 19.3570789,18.5625 C19.8668209,18.4425 20.414044,18.345 20.9987481,18.24 C23.172648,17.865 25.6388998,17.4375 26.9657284,15.3375 C27.1156525,15.0975 27.3105539,14.985 27.5579287,14.985 C27.8727693,14.985 28.1951062,15.1725 28.3375341,15.4275 C28.442481,15.6225 28.4274886,15.825 28.2850607,16.05 C27.3480349,17.535 25.9462443,18.5625 24.2296131,19.0275 C23.644909,19.1925 22.992739,19.305 22.2955918,19.425 L22.2955918,19.425 Z" id="Shape"></path>
                        </g>
                    </g>
                </g>
            </g>
        </g>
    </g>
</svg>