<?xml version="1.0" encoding="UTF-8" standalone="no"?>
<svg width="32px" height="46px" viewBox="0 0 32 46" version="1.1" xmlns="http://www.w3.org/2000/svg" xmlns:xlink="http://www.w3.org/1999/xlink">
    <!-- Generator: Sketch 41.1 (35376) - http://www.bohemiancoding.com/sketch -->
    <title>noun_321339_cc</title>
    <desc>Created with Sketch.</desc>
    <defs></defs>
    <g id="Pages" stroke="none" stroke-width="1" fill="none" fill-rule="evenodd">
        <g id="Client-dashboard-New-Task-creation-Copy" transform="translate(-961.000000, -488.000000)" fill="#4C71FE">
            <g id="Group-3" transform="translate(900.000000, 80.000000)">
                <g id="Group-2" transform="translate(40.000000, 393.000000)">
                    <g id="noun_321339_cc" transform="translate(21.738998, 15.750000)">
                        <g id="Group">
                            <path d="M15.3638835,0 C14.7866756,0 14.1944753,0.03 13.6097712,0.0975 C6.54834479,0.8775 0.858724151,6.585 0.0941111014,13.65 C-0.430623345,18.4575 1.25602309,23.1225 4.72676664,26.445 C6.96063614,28.59 8.24998364,31.545 8.24998364,34.545 L8.24998364,36 L8.24998364,37.5 L8.24998364,39 L8.24998364,42 L10.1240352,42 L12.3728971,45 L17.6202416,45 L19.8691035,42 L21.7356589,42 L21.7356589,39 L21.7356589,37.5 L21.7356589,36 L21.7356589,35.25 C21.7356589,32.085 23.1299533,29.0325 25.5662204,26.8725 C28.8495587,23.955 30.7311065,19.7625 30.7311065,15.375 C30.7311065,6.9 23.8345967,0 15.3638835,0 L15.3638835,0 Z M16.8631248,43.5 L13.1150216,43.5 L11.9905906,42 L17.9875557,42 L16.8631248,43.5 L16.8631248,43.5 Z M20.2364176,40.5 L9.7417287,40.5 L9.7417287,39 L20.2364176,39 L20.2364176,40.5 L20.2364176,40.5 Z M20.2364176,37.5 L9.7417287,37.5 L9.7417287,36 L12.7402113,36 L17.2379351,36 L20.2364176,36 L20.2364176,37.5 L20.2364176,37.5 Z M20.2589062,34.5 L9.74922491,34.5 C9.7342325,31.11 8.28746467,27.78 5.76873933,25.365 C2.64282127,22.365 1.11359517,18.15 1.59335238,13.815 C2.29049957,7.44 7.41790473,2.295 13.7896801,1.59 C14.3069184,1.53 14.839149,1.5 15.3638835,1.5 C23.010014,1.5 29.2318653,7.725 29.2318653,15.375 C29.2318653,19.335 27.5302264,23.115 24.5692249,25.7475 C22.0055223,28.02 20.4613038,31.1775 20.2589062,34.5 Z" id="Shape"></path>
                            <path d="M24.3851593,15.8625 C24.0328376,15.645 23.5680728,15.75 23.3506829,16.1025 C22.8934143,16.845 22.3162064,17.25 21.7389985,17.25 C21.1617906,17.25 20.5845827,16.845 20.1273141,16.1025 C20.1198179,16.095 20.1198179,16.095 20.1123217,16.0875 C20.0823369,16.0425 20.0448558,16.0125 20.0073748,15.975 C19.9698938,15.9375 19.939909,15.9 19.9024279,15.8775 C19.8949317,15.87 19.8949317,15.87 19.8874355,15.8625 C19.8574507,15.84 19.8199697,15.84 19.7824886,15.825 C19.7300152,15.8025 19.6850379,15.78 19.6325645,15.7725 C19.5875873,15.765 19.54261,15.765 19.4901366,15.765 C19.4376631,15.765 19.3926859,15.7575 19.3477086,15.7725 C19.2952352,15.78 19.250258,15.81 19.1977845,15.825 C19.1603035,15.84 19.1303187,15.84 19.0928376,15.8625 C19.0853414,15.87 19.0853414,15.87 19.0778452,15.8775 C19.032868,15.9075 19.0028832,15.945 18.9654021,15.9825 C18.9279211,16.02 18.8904401,16.05 18.8679514,16.0875 C18.8604552,16.095 18.8604552,16.095 18.852959,16.1025 C18.3956904,16.845 17.8184825,17.25 17.2412747,17.25 C16.6640668,17.25 16.0868589,16.845 15.6295903,16.1025 C15.6220941,16.095 15.6220941,16.095 15.6145979,16.0875 C15.5846131,16.0425 15.547132,16.0125 15.509651,15.975 C15.47217,15.9375 15.4421851,15.9 15.4047041,15.8775 C15.3972079,15.87 15.3972079,15.87 15.3897117,15.8625 C15.3597269,15.84 15.3222458,15.84 15.2847648,15.825 C15.2322914,15.8025 15.1873141,15.78 15.1348407,15.7725 C15.0898634,15.765 15.0448862,15.765 14.9924127,15.765 C14.9399393,15.765 14.8949621,15.7575 14.8499848,15.7725 C14.7975114,15.78 14.7525341,15.81 14.7000607,15.825 C14.6625797,15.84 14.6325948,15.84 14.5951138,15.8625 C14.5876176,15.87 14.5876176,15.87 14.5801214,15.8775 C14.5351442,15.9075 14.5051593,15.945 14.4676783,15.9825 C14.4301973,16.02 14.3927162,16.05 14.3702276,16.0875 C14.3627314,16.095 14.3627314,16.095 14.3552352,16.1025 C13.8979666,16.845 13.3207587,17.25 12.7435508,17.25 C12.1663429,17.25 11.5891351,16.845 11.1318665,16.1025 C11.1243703,16.095 11.1243703,16.095 11.1168741,16.0875 C11.0868892,16.0425 11.0494082,16.0125 11.0119272,15.975 C10.9744461,15.9375 10.9444613,15.9 10.9069803,15.8775 C10.8994841,15.87 10.8994841,15.87 10.8919879,15.8625 C10.862003,15.84 10.824522,15.84 10.787041,15.825 C10.7345675,15.8025 10.6895903,15.78 10.6371168,15.7725 C10.5921396,15.765 10.5471624,15.765 10.4946889,15.765 C10.4422155,15.765 10.3972382,15.7575 10.352261,15.7725 C10.2997876,15.78 10.2548103,15.81 10.2023369,15.825 C10.1648558,15.84 10.134871,15.84 10.09739,15.8625 C10.0898938,15.87 10.0898938,15.87 10.0823976,15.8775 C10.0374203,15.9075 10.0074355,15.945 9.96995448,15.9825 C9.93247344,16.02 9.89499241,16.05 9.87250379,16.0875 C9.86500759,16.095 9.86500759,16.095 9.85751138,16.1025 C9.40024279,16.845 8.8230349,17.25 8.24582701,17.25 C7.66861912,17.25 7.09141123,16.845 6.63414264,16.1025 C6.41675266,15.75 5.95198786,15.645 5.59966616,15.8625 C5.24734446,16.08 5.14239757,16.545 5.35978756,16.8975 C6.10191199,18.09 7.12889226,18.75 8.24582701,18.75 C9.07040971,18.75 9.85001517,18.39 10.4946889,17.715 C11.1393627,18.3825 11.9189681,18.75 12.7435508,18.75 C13.5681335,18.75 14.347739,18.39 14.9924127,17.715 C15.6370865,18.3825 16.416692,18.75 17.2412747,18.75 C18.0658574,18.75 18.8454628,18.39 19.4901366,17.715 C20.1348103,18.3825 20.9144158,18.75 21.7389985,18.75 C22.8559332,18.75 23.8829135,18.09 24.6250379,16.8975 C24.8424279,16.545 24.737481,16.08 24.3851593,15.8625 L24.3851593,15.8625 Z" id="Shape"></path>
                        </g>
                    </g>
                </g>
            </g>
        </g>
    </g>
</svg>