<?xml version="1.0" encoding="UTF-8" standalone="no"?>
<svg width="45px" height="45px" viewBox="0 0 45 45" version="1.1" xmlns="http://www.w3.org/2000/svg" xmlns:xlink="http://www.w3.org/1999/xlink">
    <!-- Generator: Sketch 41.1 (35376) - http://www.bohemiancoding.com/sketch -->
    <title>noun_321315_cc</title>
    <desc>Created with Sketch.</desc>
    <defs></defs>
    <g id="Pages" stroke="none" stroke-width="1" fill="none" fill-rule="evenodd">
        <g id="Client-dashboard-New-Task-creation-Copy" transform="translate(-1046.000000, -490.000000)" fill="#4C71FE">
            <g id="Group-3" transform="translate(900.000000, 80.000000)">
                <g id="Group-2" transform="translate(40.000000, 393.000000)">
                    <g id="noun_321315_cc" transform="translate(106.000000, 17.000000)">
                        <g id="Group">
                            <path d="M4.4752352,34.995 C4.19037936,34.5975 3.5307132,34.5975 3.25335357,34.995 L1.04946889,38.1 C-0.374810319,40.0725 -0.344825493,42.39 1.12443096,43.8675 C1.85905918,44.595 2.8260698,45 3.86054628,45 C4.89502276,45 5.86203338,44.595 6.5891654,43.8675 C7.62364188,42.8325 8.47820941,41.0025 6.67162367,38.1075 L4.4752352,34.995 L4.4752352,34.995 Z M5.5322003,42.81 C4.64015175,43.7025 3.08094082,43.7025 2.18889226,42.81 C1.24437026,41.865 1.27435508,40.3575 2.27135053,38.9775 L3.86054628,36.7275 L5.42725341,38.94 C6.94898331,41.385 5.884522,42.4575 5.5322003,42.81 L5.5322003,42.81 Z" id="Shape"></path>
                            <path d="M1.71663126,31.7175 C1.42427921,32.01 1.42427921,32.4825 1.71663126,32.775 C1.86655539,32.925 2.05396055,33 2.24886191,33 C2.44376328,33 2.63116844,32.925 2.78109256,32.7825 L4.28033384,31.2825 C4.57268589,30.99 4.57268589,30.5175 4.28033384,30.225 C3.98798179,29.9325 3.51572079,29.9325 3.22336874,30.225 L1.71663126,31.7175 L1.71663126,31.7175 Z" id="Shape"></path>
                            <path d="M0.749620637,29.25 L2.99848255,29.25 C3.4107739,29.25 3.74810319,28.9125 3.74810319,28.5 C3.74810319,28.0875 3.4107739,27.75 2.99848255,27.75 L0.749620637,27.75 C0.337329287,27.75 0,28.0875 0,28.5 C0,28.9125 0.337329287,29.25 0.749620637,29.25 L0.749620637,29.25 Z" id="Shape"></path>
                            <path d="M44.2276176,21.75 L32.2336874,21.75 L32.2336874,18 L27.7359636,18 L27.7359636,20.25 L24.3776631,20.25 C24.1602731,20.25 23.9878604,20.0775 23.9878604,19.86 L23.9878604,16.5 L26.2367223,16.5 L26.2367223,12 L22.4886191,12 L22.4886191,0 L5.9969651,0 L5.9969651,12 L2.24886191,12 L2.24886191,16.5 L4.49772382,16.5 L4.49772382,25.8225 C4.49772382,33.5025 10.7420637,39.75 18.4181791,39.75 L27.7359636,39.75 L27.7359636,42 L32.2336874,42 L32.2336874,38.25 L44.2276176,38.25 L44.2276176,21.75 L44.2276176,21.75 Z M7.49620637,1.5 L20.9893778,1.5 L20.9893778,12 L7.49620637,12 L7.49620637,1.5 L7.49620637,1.5 Z M3.74810319,15 L3.74810319,13.5 L5.9969651,13.5 L22.4886191,13.5 L24.737481,13.5 L24.737481,15 L23.9878604,15 L4.49772382,15 L3.74810319,15 L3.74810319,15 Z M18.4181791,38.25 C12.4886798,38.25 7.5261912,34.065 6.29681335,28.5 L8.99544765,28.5 C9.407739,28.5 9.74506829,28.1625 9.74506829,27.75 L9.74506829,25.5 L11.9939302,25.5 C12.4062215,25.5 12.7435508,25.1625 12.7435508,24.75 L12.7435508,21.75 C12.7435508,21.3375 12.4062215,21 11.9939302,21 C11.5816388,21 11.2443096,21.3375 11.2443096,21.75 L11.2443096,24 L8.99544765,24 C8.5831563,24 8.24582701,24.3375 8.24582701,24.75 L8.24582701,27 L6.05693475,27 C6.01945372,26.61 5.9969651,26.22 5.9969651,25.8225 L5.9969651,16.5 L22.4886191,16.5 L22.4886191,19.86 C22.4886191,20.9025 23.3356904,21.75 24.3776631,21.75 L27.7359636,21.75 L27.7359636,38.25 L18.4181791,38.25 L18.4181791,38.25 Z M30.7344461,40.5 L29.2352049,40.5 L29.2352049,39.75 L29.2352049,20.25 L29.2352049,19.5 L30.7344461,19.5 L30.7344461,21.75 L30.7344461,38.25 L30.7344461,40.5 L30.7344461,40.5 Z M42.7283763,36.75 L32.2336874,36.75 L32.2336874,23.25 L42.7283763,23.25 L42.7283763,36.75 L42.7283763,36.75 Z" id="Shape"></path>
                        </g>
                    </g>
                </g>
            </g>
        </g>
    </g>
</svg>