<?xml version="1.0" encoding="UTF-8" standalone="no"?>
<svg width="45px" height="28px" viewBox="0 0 45 28" version="1.1" xmlns="http://www.w3.org/2000/svg" xmlns:xlink="http://www.w3.org/1999/xlink">
    <!-- Generator: Sketch 41.1 (35376) - http://www.bohemiancoding.com/sketch -->
    <title>noun_321399_cc</title>
    <desc>Created with Sketch.</desc>
    <defs></defs>
    <g id="Pages" stroke="none" stroke-width="1" fill="none" fill-rule="evenodd">
        <g id="Client-dashboard-New-Task-creation-Copy" transform="translate(-1228.000000, -496.000000)" fill="#4C71FE">
            <g id="Group-3" transform="translate(900.000000, 80.000000)">
                <g id="Group-2" transform="translate(40.000000, 393.000000)">
                    <g id="noun_321399_cc" transform="translate(288.000000, 23.000000)">
                        <g id="Group">
                            <path d="M44.2276176,23.25 L43.6429135,23.25 L43.987739,21.5175 C44.6549014,18.1725 44.2650986,14.7675 42.863308,11.6625 C42.7283763,11.37 42.4285281,11.19 42.098695,11.2275 C41.3415781,11.31 40.6069499,11.115 39.8498331,10.5375 C38.8528376,9.78 38.2981184,8.7 38.3655842,7.6575 C38.4630349,6.12 39.5874659,4.845 41.0942033,4.56 C41.4915023,4.485 41.7538695,4.11 41.6938998,3.7125 L41.3490744,1.3875 C41.3190895,1.1925 41.2141426,1.0125 41.0492261,0.8925 C40.8918058,0.7725 40.6894082,0.72 40.4870106,0.7575 L29.9848255,2.4 L29.9848255,1.5 C29.9848255,1.0875 29.6474962,0.75 29.2352049,0.75 L25.4871017,0.75 C25.0748103,0.75 24.737481,1.0875 24.737481,1.5 L24.737481,3.6225 C23.2007587,4.1475 21.686525,4.83 20.2397572,5.6775 L20.2397572,5.355 C20.2397572,4.47 19.5201214,3.75 18.635569,3.75 L16.5966009,3.75 C15.7120486,3.75 14.9924127,4.47 14.9924127,5.355 L14.9924127,9.75 C14.9924127,9.7875 15.0074052,9.825 15.0149014,9.8625 C12.9084674,12.1725 11.296783,14.9925 10.569651,18.33 C7.90849772,19.17 5.77207891,19.92 3.71062215,22.6725 L3.30582701,23.3025 C2.14391502,23.6025 1.22188164,24.9375 0.712139605,25.7025 L0.127435508,26.58 C-0.0224886191,26.8125 -0.0374810319,27.105 0.0899544765,27.3525 C0.217389985,27.6 0.472261002,27.75 0.749620637,27.75 L44.2276176,27.75 C44.639909,27.75 44.9772382,27.4125 44.9772382,27 L44.9772382,24 C44.9772382,23.5875 44.639909,23.25 44.2276176,23.25 L44.2276176,23.25 Z M26.2367223,2.25 L28.4855842,2.25 L28.4855842,2.64 C28.2756904,2.6775 28.0657967,2.7225 27.8559029,2.7675 C27.6984825,2.7975 27.5485584,2.8275 27.3911381,2.865 C27.1662519,2.9175 26.9338695,2.9775 26.7014871,3.0375 C26.551563,3.075 26.3941426,3.1125 26.2367223,3.1575 L26.2367223,2.25 L26.2367223,2.25 Z M16.491654,5.355 C16.491654,5.295 16.5366313,5.25 16.5966009,5.25 L18.635569,5.25 C18.6955387,5.25 18.7405159,5.295 18.7405159,5.355 L18.7405159,6.6075 C17.9534143,7.1475 17.1962974,7.74 16.491654,8.3775 L16.491654,5.355 L16.491654,5.355 Z M11.3267678,19.665 L11.4691958,19.62 C11.7540516,19.53 11.9564492,19.29 11.986434,18.9975 C11.9939302,18.9375 11.9939302,18.8775 11.9939302,18.825 C13.5006677,11.55 19.5201214,6.855 25.7344765,4.875 C26.2667071,4.7025 26.7989378,4.56 27.3236722,4.425 C27.3986343,4.41 27.4735964,4.3875 27.5560546,4.365 C28.1107739,4.2375 28.657997,4.125 29.1977238,4.035 L29.347648,4.0125 L29.347648,4.0125 L39.9772686,2.3475 L40.1122003,3.27 C38.2906222,3.9075 36.9862822,5.58 36.8663429,7.56 C36.7688923,9.1125 37.5410015,10.6725 38.9352959,11.73 C39.8198483,12.405 40.719393,12.735 41.6938998,12.7425 C42.8033384,15.435 43.0881942,18.3525 42.5184825,21.2175 L42.1136874,23.25 L5.15738998,23.25 C6.90400607,21.0525 8.68810319,20.4975 11.3267678,19.665 L11.3267678,19.665 Z M43.477997,26.25 L2.15141123,26.25 C2.54121396,25.6875 3.23086495,24.78 3.77059181,24.75 L3.89802731,24.75 L42.7283763,24.75 L43.477997,24.75 L43.477997,26.25 L43.477997,26.25 Z" id="Shape"></path>
                            <path d="M36.8438543,11.7975 C35.8018816,10.5375 35.2771472,9 35.3745979,7.4775 C35.3895903,7.185 35.4270713,6.9 35.487041,6.6225 L35.6969347,5.565 C35.741912,5.325 35.6744461,5.0775 35.5020334,4.8975 C35.3296206,4.7175 35.089742,4.635 34.8423672,4.6725 L29.4301062,5.52 C24.5950531,6.2775 19.3027314,10.005 17.3237329,14.0325 L16.1543247,15.2175 C15.9294385,15.4425 15.8769651,15.7875 16.0118968,16.0725 C16.1393323,16.335 16.4016995,16.4925 16.6865554,16.4925 C16.7165402,16.4925 16.7390288,16.4925 16.7690137,16.485 L37.3610926,14.235 C37.6384522,14.205 37.8708346,14.025 37.9757815,13.77 C38.0807284,13.515 38.0357511,13.2225 37.8558422,13.0125 L36.8438543,11.7975 L36.8438543,11.7975 Z M24.8649165,14.1 L24.8649165,12 L31.6115023,12 L31.6115023,13.365 L26.4241275,13.935 L24.8649165,14.1 L24.8649165,14.1 Z M33.1107436,13.2 L33.1107436,11.25 C33.1107436,10.8375 32.7734143,10.5 32.3611229,10.5 L24.1152959,10.5 C23.7030046,10.5 23.3656753,10.8375 23.3656753,11.25 L23.3656753,14.265 L18.6280728,14.7825 C20.3522003,11.175 25.2996965,7.6875 29.6624886,7.005 L34.0102883,6.3225 C33.9428225,6.6675 33.8978452,7.02 33.8753566,7.38 C33.7554173,9.285 34.400091,11.19 35.6894385,12.75 L35.8168741,12.9075 L33.1107436,13.2 L33.1107436,13.2 Z" id="Shape"></path>
                        </g>
                    </g>
                </g>
            </g>
        </g>
    </g>
</svg>